<?xml version="1.0" encoding="iso-8859-1"?>
<!-- Generator: Adobe Illustrator 19.0.0, SVG Export Plug-In . SVG Version: 6.00 Build 0)  -->
<svg version="1.1" id="Capa_1" xmlns="http://www.w3.org/2000/svg" xmlns:xlink="http://www.w3.org/1999/xlink" x="0px" y="0px"
	 viewBox="0 0 512 512" style="enable-background:new 0 0 512 512;" xml:space="preserve">
<path style="fill:#51FAFF;" d="M471.681,118.407v346.182c0,26.145-21.266,47.411-47.401,47.411H130.408
	c-26.145,0-47.401-21.266-47.401-47.411V47.401C83.007,21.266,104.263,0,130.408,0h222.786c12.658,0,24.555,4.919,33.503,13.867
	l71.076,71.006C466.742,93.832,471.681,105.739,471.681,118.407z"/>
<path style="fill:#00E7F0;" d="M471.681,118.407v346.182c0,26.145-21.266,47.411-47.401,47.411H277.339V0h75.855
	c12.658,0,24.555,4.919,33.503,13.867l71.076,71.006C466.742,93.832,471.681,105.739,471.681,118.407z"/>
<path style="fill:#00C0F1;" d="M471.681,118.407v1.89H366.611c-8.288,0-14.997-6.709-14.997-14.997V0h1.58
	c12.658,0,24.555,4.919,33.503,13.867l71.076,71.006C466.742,93.832,471.681,105.739,471.681,118.407z"/>
<path style="fill:#7C75DA;" d="M350.719,334.668v82.674c0,19.906-16.187,36.093-36.093,36.093H76.412
	c-19.906,0-36.093-16.187-36.093-36.093v-82.674c0-19.896,16.187-36.093,36.093-36.093h238.213
	C334.532,298.576,350.719,314.773,350.719,334.668z"/>
<path style="fill:#615AD3;" d="M350.719,334.668v82.674c0,19.906-16.187,36.093-36.093,36.093h-37.283v-154.86h37.283
	C334.532,298.576,350.719,314.773,350.719,334.668z"/>
<g>
	<path style="fill:#FFFFFF;" d="M112.762,347.103c0-1.747,0.386-3.261,1.157-4.541c0.771-1.28,1.895-1.921,3.373-1.921h41.643
		c1.478,0,2.604,0.641,3.373,1.921c0.771,1.28,1.157,2.794,1.157,4.541c0,1.874-0.402,3.449-1.205,4.729
		c-0.805,1.28-1.913,1.919-3.325,1.919h-13.303v52.698c0,1.488-0.739,2.637-2.217,3.445c-1.479,0.81-3.246,1.213-5.302,1.213
		c-2.059,0-3.824-0.403-5.303-1.213c-1.479-0.809-2.217-1.958-2.217-3.445v-52.698H117.29c-1.414,0-2.523-0.639-3.325-1.919
		C113.162,350.553,112.762,348.977,112.762,347.103z"/>
	<path style="fill:#FFFFFF;" d="M165.007,404.263c0-0.834,0.289-1.735,0.867-2.698l16.677-25.738l-16.002-25.641
		c-0.643-1.027-0.964-2.024-0.964-2.987c0-1.929,1.061-3.599,3.181-5.013c2.121-1.413,4.305-2.121,6.556-2.121
		c2.121,0,3.63,0.836,4.53,2.507l12.82,22.364l12.82-22.364c0.899-1.671,2.41-2.507,4.53-2.507c2.249,0,4.435,0.708,6.556,2.121
		c2.121,1.414,3.181,3.084,3.181,5.013c0,0.964-0.322,1.961-0.964,2.987l-16.002,25.641l16.677,25.738
		c0.578,0.964,0.867,1.865,0.867,2.698c0,1.929-1.108,3.648-3.325,5.157c-2.218,1.512-4.45,2.266-6.7,2.266
		c-1.8,0-2.987-0.515-3.566-1.542l-14.073-23.906L178.6,410.144c-0.644,1.027-1.832,1.542-3.566,1.542
		c-2.251,0-4.482-0.754-6.7-2.266C166.116,407.911,165.007,406.191,165.007,404.263z"/>
	<path style="fill:#FFFFFF;" d="M221.881,347.103c0-1.747,0.386-3.261,1.157-4.541c0.771-1.28,1.895-1.921,3.373-1.921h41.643
		c1.478,0,2.604,0.641,3.373,1.921c0.771,1.28,1.157,2.794,1.157,4.541c0,1.874-0.402,3.449-1.205,4.729
		c-0.805,1.28-1.913,1.919-3.325,1.919H254.75v52.698c0,1.488-0.739,2.637-2.217,3.445c-1.479,0.81-3.246,1.213-5.302,1.213
		c-2.059,0-3.824-0.403-5.303-1.213c-1.479-0.809-2.217-1.958-2.217-3.445v-52.698h-13.303c-1.414,0-2.523-0.639-3.325-1.919
		C222.282,350.553,221.881,348.977,221.881,347.103z"/>
</g>
<g>
</g>
<g>
</g>
<g>
</g>
<g>
</g>
<g>
</g>
<g>
</g>
<g>
</g>
<g>
</g>
<g>
</g>
<g>
</g>
<g>
</g>
<g>
</g>
<g>
</g>
<g>
</g>
<g>
</g>
</svg>
